<svg id="Layer_1" enable-background="new 0 0 509.919 509.919" height="512" viewBox="0 0 509.919 509.919" width="512" xmlns="http://www.w3.org/2000/svg"><path d="m167.853 173.865c6.357-6.825 13.503-12.904 21.294-18.09-26.941-24.266-66.995-44.771-101.996-48.172-50.988-4.955-71.08 30.173-48.497 68.359 39.269-12.866 88.693-13.601 129.199-2.097z"/><path d="m220.012 141.119c8.79-2.704 18.011-4.411 27.53-4.999-11.225-34.54-35.679-72.274-64.234-92.679-41.688-29.792-76.644-9.4-76.18 34.952 40.477 8.499 83.6 32.582 112.884 62.726z"/><path d="m281.612 138.892c9.234 2.12 18.057 5.321 26.339 9.454 7.555-35.536 5.24-80.446-9.286-112.393-21.221-46.675-61.667-46.417-83.442-7.813 30.8 27.598 56.101 70.011 66.389 110.752z"/><path d="m368.795 220.008c2.704 8.79 4.41 18.01 4.999 27.529 34.593-11.242 72.305-35.723 92.679-64.233 29.785-41.679 9.411-76.651-34.951-76.181-8.481 40.39-32.522 83.542-62.727 112.885z"/><path d="m336.048 167.847c6.825 6.358 12.904 13.504 18.091 21.294 24.269-26.944 44.77-67.001 48.171-101.996 4.954-50.989-30.172-71.08-68.36-48.497 12.868 39.272 13.602 88.692 2.098 129.199z"/><path d="m138.896 228.303c2.12-9.234 5.321-18.058 9.454-26.34-35.582-7.564-80.494-5.219-112.393 9.286-46.636 21.204-46.472 61.67-7.82 83.449 27.485-30.676 69.849-56.063 110.759-66.395z"/><path d="m173.87 342.062c-6.825-6.357-12.904-13.503-18.091-21.294-24.269 26.944-44.77 67.001-48.171 101.996-4.959 51.038 30.19 71.058 68.357 48.491-12.89-39.352-13.575-88.768-2.095-129.193z"/><path d="m481.781 215.211c-27.542 30.74-69.93 56.085-110.759 66.396-2.12 9.234-5.321 18.058-9.454 26.34 35.582 7.564 80.494 5.219 112.393-9.286 46.636-21.205 46.472-61.672 7.82-83.45z"/><path d="m141.123 289.902c-2.704-8.79-4.41-18.01-4.999-27.529-34.594 11.242-72.305 35.723-92.679 64.233-29.822 41.73-9.366 76.658 34.952 76.177 8.483-40.391 32.522-83.539 62.726-112.881z"/><path d="m342.066 336.044c-6.357 6.825-13.503 12.904-21.294 18.09 47.675 42.94 131.357 69.163 154.96 28.284 4.65-8.054 9.692-24.528-4.468-48.472-39.268 12.868-88.692 13.602-129.198 2.098z"/><path d="m228.307 371.018c-9.233-2.12-18.057-5.321-26.338-9.454-7.556 35.541-5.238 80.45 9.285 112.393 21.204 46.635 61.67 46.473 83.45 7.82-30.741-27.542-56.088-69.933-66.397-110.759z"/><path d="m289.907 368.791c-8.79 2.704-18.011 4.411-27.53 4.999 15.894 48.91 60.589 106.764 101.391 106.764 20.761 0 39.372-15.589 39.022-49.036-40.31-8.465-83.483-32.462-112.883-62.727z"/><path d="m254.959 167.883c-48.012 0-87.072 39.061-87.072 87.072s39.061 87.072 87.072 87.072 87.072-39.061 87.072-87.072-39.06-87.072-87.072-87.072z"/></svg>